<?xml version="1.0" standalone="no"?>
<!DOCTYPE svg PUBLIC "-//W3C//DTD SVG 20010904//EN"
 "http://www.w3.org/TR/2001/REC-SVG-20010904/DTD/svg10.dtd">
<svg version="1.0" xmlns="http://www.w3.org/2000/svg"
 width="1000.000000pt" height="1000.000000pt" viewBox="0 0 1000.000000 1000.000000"
 preserveAspectRatio="xMidYMid meet">
<metadata>
Created by potrace 1.11, written by Peter Selinger 2001-2013
</metadata>
<g transform="translate(0.000000,1000.000000) scale(0.100000,-0.100000)"
fill="#000000" stroke="none">
<path d="M0 9366 c0 -444 3 -637 11 -641 6 -4 17 2 25 14 8 12 24 21 34 21 11
0 32 16 47 35 21 27 35 35 60 35 34 0 58 18 68 50 3 11 15 20 25 20 20 0 70
57 70 81 1 23 24 47 52 54 30 8 41 28 33 56 -7 22 10 26 19 4 9 -24 21 -17 31
18 7 22 17 33 33 35 12 2 27 12 32 22 6 10 22 20 37 22 23 2 27 8 28 33 0 24
4 30 21 30 34 1 56 24 49 54 -5 24 0 28 51 50 31 13 58 30 61 38 4 11 8 11 20
2 11 -9 17 -9 26 0 9 10 8 15 -5 25 -16 11 -13 16 29 45 25 18 52 30 59 27 10
-4 21 7 31 30 15 30 21 34 41 29 18 -4 28 0 39 15 8 12 20 19 26 17 7 -2 23 2
37 9 15 7 35 12 45 11 15 -2 21 5 23 26 3 23 7 27 23 22 18 -6 100 18 125 37
6 4 9 19 6 33 -3 19 0 25 14 25 11 0 30 16 44 35 15 20 34 35 46 35 12 0 29
11 38 25 9 14 29 28 44 31 15 4 44 21 64 37 25 20 44 28 58 24 15 -4 24 2 35
23 8 16 15 31 15 35 0 3 -376 5 -835 5 l-835 0 0 -634z"/>
<path d="M4983 9993 c19 -3 27 -10 27 -24 0 -23 17 -25 41 -3 17 16 21 14 59
-20 40 -36 60 -45 60 -26 0 16 27 12 67 -10 21 -11 43 -20 50 -20 7 0 13 -4
13 -8 0 -5 29 -9 65 -9 52 0 69 -4 79 -19 8 -11 28 -18 53 -19 29 -2 47 -10
71 -35 23 -23 39 -31 53 -27 21 6 69 -10 80 -27 4 -5 14 -6 23 -3 8 3 18 2 20
-2 5 -8 70 -23 112 -26 11 0 33 -11 49 -23 15 -12 41 -22 57 -22 36 0 64 -14
92 -46 13 -15 37 -27 61 -31 22 -3 50 -14 62 -25 20 -19 80 -39 113 -39 39 0
60 -10 60 -29 0 -13 7 -20 20 -20 11 0 20 5 20 10 0 19 49 10 64 -12 12 -16
24 -21 56 -20 40 2 42 0 57 -37 19 -49 39 -58 68 -31 25 23 45 26 45 6 0 -19
87 -38 111 -25 11 6 28 5 45 -2 16 -5 39 -7 52 -4 17 4 33 -3 60 -25 20 -16
42 -30 49 -30 7 0 17 -8 22 -18 9 -18 66 -22 91 -7 6 3 19 -4 29 -17 13 -15
32 -24 58 -25 21 -2 54 -4 75 -6 20 -1 39 -5 43 -9 4 -3 49 -4 100 -1 65 4
103 2 124 -7 24 -10 34 -10 45 -1 22 18 133 -6 147 -30 13 -25 23 -24 53 6 29
28 56 33 56 9 0 -13 8 -15 43 -11 121 17 197 19 197 7 0 -9 5 -8 18 3 10 10
26 17 36 17 9 0 21 11 26 25 10 26 50 36 50 12 0 -7 20 -20 44 -29 40 -15 46
-15 67 0 13 9 44 17 70 18 52 2 69 9 69 29 0 23 39 39 64 27 11 -6 33 -13 48
-16 22 -5 27 -2 30 16 3 20 10 23 53 26 27 2 53 8 57 15 8 13 278 18 278 5 0
-5 9 -8 20 -8 12 0 20 7 20 16 0 12 6 15 23 9 53 -16 67 -16 107 4 39 19 45
19 61 6 15 -14 17 -14 22 -1 8 19 110 15 217 -8 41 -9 89 -14 105 -11 20 3 41
-2 62 -14 17 -11 40 -17 50 -15 11 3 28 -5 42 -20 25 -26 51 -34 51 -16 0 6 9
6 23 1 25 -10 103 -27 165 -36 l42 -7 0 376 0 376 -2522 -1 c-1388 -1 -2511
-4 -2495 -6z"/>
<path d="M6010 9620 c-9 -6 -10 -10 -3 -10 6 0 15 5 18 10 8 12 4 12 -15 0z"/>
<path d="M6650 9360 c0 -11 2 -20 4 -20 2 0 6 9 9 20 3 11 1 20 -4 20 -5 0 -9
-9 -9 -20z"/>
<path d="M400 9000 c-9 -6 -10 -10 -3 -10 6 0 15 5 18 10 8 12 4 12 -15 0z"/>
<path d="M4397 8519 c-54 -4 -110 -10 -125 -13 -15 -3 -49 -10 -77 -15 -104
-19 -222 -54 -299 -88 -129 -57 -379 -182 -406 -203 -14 -11 13 0 60 24 47 24
96 46 110 50 24 7 24 6 6 -8 -23 -19 -22 -19 22 -6 31 8 32 8 20 -7 -16 -21
-169 -93 -196 -93 -11 0 -26 -7 -33 -17 -13 -15 -11 -16 14 -9 15 3 27 3 27
-1 0 -9 -127 -83 -141 -83 -5 0 -9 -5 -9 -11 0 -6 -14 -24 -32 -41 -30 -28
-31 -33 -31 -101 0 -55 6 -84 26 -125 18 -39 23 -63 20 -95 -3 -23 0 -61 6
-85 12 -41 63 -112 83 -112 5 0 -6 18 -25 41 -32 36 -56 103 -43 116 3 3 20
-9 38 -26 18 -17 40 -31 49 -31 9 0 19 -9 22 -20 3 -11 1 -20 -5 -20 -5 0 2
-14 16 -31 14 -17 26 -35 26 -40 0 -12 39 -35 73 -43 l28 -7 -20 22 c-24 26
-21 35 7 20 12 -6 29 -11 39 -11 12 0 6 8 -18 24 -36 25 -55 61 -38 72 5 3 8
11 7 17 -4 16 22 77 33 77 17 0 21 -22 9 -51 -24 -58 28 -110 67 -66 10 11 13
17 7 14 -7 -4 -17 -1 -23 7 -9 11 -3 21 28 48 22 19 57 55 76 81 27 35 42 46
59 45 20 -2 23 -6 16 -24 -8 -19 -5 -22 16 -20 13 0 24 6 24 13 0 11 19 21
145 78 33 15 81 45 108 67 43 36 167 101 176 92 15 -14 -125 -166 -194 -211
-87 -57 -83 -53 -60 -46 64 21 206 134 279 223 52 64 160 150 172 137 3 -3 5
-20 5 -38 -3 -96 -2 -122 7 -209 6 -72 16 -111 40 -164 32 -68 37 -100 26
-143 -5 -17 -18 -23 -62 -32 -32 -6 -77 -15 -102 -21 -25 -5 -62 -9 -82 -10
-26 0 -50 -10 -81 -34 -24 -19 -71 -41 -103 -51 -93 -27 -406 -145 -441 -167
-54 -32 -90 -108 -51 -108 6 0 21 -12 34 -26 13 -14 28 -23 33 -20 9 6 71 -85
71 -105 0 -6 24 -36 54 -67 29 -31 63 -76 75 -100 15 -29 38 -54 72 -74 27
-17 49 -35 49 -40 0 -12 -75 -187 -101 -238 -12 -22 -23 -57 -26 -79 -4 -28
-16 -50 -44 -77 -22 -21 -39 -42 -39 -46 0 -5 -18 -33 -40 -63 -22 -30 -40
-57 -40 -60 0 -4 -24 -54 -52 -113 l-53 -107 -3 -180 c-2 -99 1 -236 7 -305
12 -136 55 -444 66 -472 5 -12 2 -18 -8 -18 -16 0 -29 -54 -16 -67 6 -7 17
-71 18 -110 1 -7 10 -21 21 -31 17 -16 18 -22 8 -49 -13 -35 4 -135 29 -164 7
-8 13 -20 13 -25 0 -6 12 -22 28 -36 23 -22 36 -26 87 -25 71 0 110 -16 124
-52 10 -22 15 -173 12 -334 -1 -27 4 -57 10 -68 7 -14 7 -49 0 -117 -6 -53
-13 -150 -15 -215 -5 -128 -17 -162 -79 -217 -22 -20 -30 -37 -34 -75 -3 -28
-13 -73 -23 -102 -11 -28 -22 -75 -25 -105 -4 -29 -17 -96 -30 -148 -20 -78
-88 -472 -110 -635 -3 -22 -11 -62 -17 -89 -8 -36 -7 -57 2 -87 12 -36 11 -45
-24 -131 -20 -51 -36 -99 -36 -106 0 -7 9 -26 21 -41 25 -34 20 -59 -22 -102
-16 -16 -29 -36 -29 -44 0 -8 -4 -15 -8 -15 -5 0 -15 -18 -22 -41 -8 -23 -19
-43 -26 -46 -18 -7 -34 -57 -24 -74 5 -7 5 -18 0 -24 -4 -5 -7 -41 -6 -78 0
-38 -1 -71 -4 -74 -3 -2 -6 -21 -6 -41 -1 -21 -4 -50 -8 -67 -9 -45 -26 -145
-33 -187 -3 -22 -9 -35 -15 -32 -6 4 -14 1 -18 -6 -11 -17 -100 -33 -116 -19
-9 7 -18 4 -32 -11 -14 -15 -27 -20 -41 -15 -12 3 -21 2 -21 -3 0 -5 24 -17
54 -26 30 -10 57 -23 59 -29 2 -6 17 -12 33 -13 72 -3 73 -3 94 -46 11 -23 18
-50 14 -60 -3 -11 4 -28 20 -45 14 -15 26 -35 26 -43 0 -9 5 -21 11 -27 32
-32 -98 -52 -376 -58 -119 -2 -220 -7 -225 -10 -6 -3 -10 -2 -10 2 0 5 -39 5
-87 1 -49 -4 -185 -10 -303 -13 -118 -3 -222 -8 -232 -11 -10 -3 -22 -2 -28 1
-15 10 15 35 42 35 13 0 29 4 37 9 11 7 3 12 -27 22 -23 7 -42 16 -42 21 0 11
48 10 55 -2 4 -7 14 -6 28 2 21 11 35 15 87 22 14 2 28 4 32 5 3 0 4 10 1 20
-7 27 21 39 97 43 39 2 65 8 68 16 2 6 -3 12 -12 12 -8 0 -19 8 -25 17 -11 21
-109 23 -221 5 -73 -12 -75 -12 -92 10 -10 13 -16 32 -14 42 5 21 -27 56 -51
56 -18 0 -17 25 3 41 12 10 20 10 35 1 28 -18 105 -15 142 5 29 16 89 22 219
23 39 1 60 17 38 30 -6 4 -32 5 -56 2 -35 -4 -44 -2 -44 11 0 8 6 18 13 20 23
10 -15 26 -46 20 -23 -5 -29 -2 -34 16 -4 15 -16 23 -44 27 -22 4 -39 10 -39
15 0 4 -10 9 -22 11 -19 2 -23 9 -21 35 3 36 -17 48 -60 38 -28 -7 -72 12
-101 44 -20 22 -56 29 -56 11 0 -5 -7 -10 -15 -10 -8 0 -15 5 -15 10 0 6 -7
10 -15 10 -9 0 -34 12 -56 27 -33 22 -39 31 -35 50 5 18 1 24 -19 29 -15 4
-25 13 -25 24 0 14 10 19 45 22 26 2 45 -1 45 -7 0 -6 3 -5 8 1 8 13 77 29
107 26 29 -4 65 7 65 19 0 7 -19 10 -47 8 -92 -5 -104 -2 -97 25 4 18 1 25
-14 28 -11 3 -24 2 -29 -2 -12 -12 -65 0 -60 14 2 6 16 17 30 24 33 16 35 32
3 32 -13 0 -29 7 -36 15 -7 9 -19 14 -27 11 -7 -3 -13 -1 -13 4 0 6 9 10 20
10 24 0 26 22 4 41 -11 9 -20 10 -32 2 -11 -6 -26 -7 -41 -2 -24 10 -45 3 -36
-11 3 -5 0 -12 -6 -16 -6 -3 -15 -1 -20 7 -6 10 -35 13 -126 10 -255 -6 -574
-5 -688 1 -66 4 -136 7 -155 6 -105 -6 -174 -2 -177 9 -3 9 17 11 77 10 45 -2
83 0 86 4 8 13 117 32 196 34 43 0 80 4 83 7 10 10 -66 18 -125 14 -57 -4
-116 16 -105 34 4 6 0 13 -9 16 -8 3 -13 11 -10 18 2 6 -8 17 -23 24 -26 11
-24 11 21 8 26 -2 62 0 80 4 17 5 132 11 256 15 124 3 257 8 295 10 110 7 299
25 303 30 20 19 -314 17 -633 -6 -77 -5 -306 -14 -510 -19 -203 -5 -454 -12
-557 -16 l-188 -7 0 -928 0 -929 1514 0 c1305 0 1517 2 1529 14 12 13 22 13
73 1 74 -18 126 -19 143 -2 11 9 14 9 18 0 6 -17 70 -17 76 0 4 9 6 9 6 0 1
-17 171 -18 171 -2 0 5 -5 7 -10 4 -5 -3 -10 -1 -10 4 0 15 43 14 58 -1 10
-10 97 -14 349 -16 303 -3 337 -2 345 13 6 9 21 20 34 25 26 10 33 40 9 40 -8
0 -15 5 -15 10 0 6 5 10 10 10 18 0 11 18 -10 25 -11 3 -20 12 -20 19 0 8 -7
19 -15 26 -19 16 -20 41 0 34 10 -4 13 1 12 22 -1 21 3 29 18 32 11 3 25 11
31 20 6 9 16 12 24 7 8 -5 11 -3 8 6 -2 8 -21 18 -41 23 -36 9 -62 46 -38 54
21 7 11 18 -16 17 -22 0 -29 5 -31 23 -2 15 2 22 12 22 21 0 20 8 -6 46 -26
38 -62 57 -90 48 -13 -4 -26 1 -38 14 -18 20 -18 20 3 26 33 9 80 7 97 -4 10
-6 20 -4 33 8 15 13 42 17 125 19 59 2 168 10 242 19 74 9 164 17 200 18 122
4 133 9 85 40 -29 19 -86 13 -110 -10 -15 -16 -35 -19 -35 -5 0 14 -138 21
-427 22 -256 1 -273 3 -273 20 0 11 -9 19 -22 21 -13 2 -24 11 -26 22 -5 25
-26 46 -46 46 -9 0 -16 5 -16 10 0 6 7 10 15 10 9 0 17 14 21 38 3 20 10 54
14 74 7 36 7 37 -14 26 -11 -6 -27 -19 -34 -30 -9 -12 -26 -18 -54 -18 l-41 0
42 37 c40 36 41 41 42 98 1 33 -3 71 -9 85 -16 42 -13 202 5 222 11 12 17 46
20 105 3 48 9 94 15 100 7 9 7 17 0 26 -5 6 -12 50 -14 96 -3 84 0 92 40 107
1 1 17 52 36 115 18 63 42 132 54 154 12 22 22 44 22 48 0 5 29 75 65 154 36
80 86 203 111 272 25 69 75 198 111 286 36 88 73 185 83 215 18 56 55 149 135
340 52 124 157 393 225 575 27 72 69 179 94 238 25 60 64 161 87 225 64 181
49 166 178 180 139 16 313 45 456 78 239 55 279 64 284 59 2 -3 -5 -26 -17
-50 -12 -25 -22 -52 -22 -60 0 -8 -13 -29 -29 -47 -16 -19 -41 -59 -56 -90
-22 -47 -36 -62 -79 -86 -28 -16 -57 -41 -65 -55 -7 -14 -26 -35 -42 -46 -22
-17 -29 -30 -29 -56 0 -34 -18 -64 -101 -170 -20 -26 -29 -47 -26 -62 3 -18
-1 -25 -18 -29 -13 -3 -32 -1 -43 5 -16 8 -26 6 -53 -14 -19 -14 -45 -30 -59
-37 -14 -7 -50 -32 -80 -55 -99 -77 -105 -83 -95 -97 6 -7 24 -33 41 -59 17
-26 34 -43 38 -40 4 4 4 1 1 -7 -3 -10 19 -45 57 -91 35 -41 81 -106 103 -143
22 -38 45 -71 52 -73 7 -3 10 -9 7 -14 -3 -5 0 -9 5 -9 6 0 10 -5 8 -11 -1 -6
4 -14 12 -16 10 -4 12 6 7 48 -10 86 -9 99 7 117 9 10 22 39 28 65 10 36 18
47 34 47 11 0 26 4 34 9 7 5 28 4 47 -2 29 -9 34 -15 32 -38 -1 -15 4 -35 12
-44 12 -14 12 -18 0 -25 -8 -5 -18 -6 -22 -4 -4 3 -8 -1 -8 -8 0 -17 57 -67
67 -59 4 3 1 -2 -6 -12 -11 -14 -11 -20 -1 -32 35 -42 53 9 29 85 -14 46 -14
239 0 253 16 16 13 49 -5 75 -15 21 -15 25 2 43 9 10 23 19 31 19 7 0 13 4 13
8 0 17 143 167 170 178 15 7 36 24 46 39 24 34 115 123 176 172 68 54 310 322
451 498 192 240 225 337 156 470 -68 131 -117 157 -359 191 -75 11 -208 18
-385 20 -148 3 -274 5 -280 5 -5 0 -39 -5 -75 -11 -36 -6 -99 -12 -141 -12
-77 -1 -77 -1 -124 40 -26 23 -52 42 -56 42 -5 0 -17 -10 -29 -22 l-20 -22 0
63 c0 44 -3 60 -11 55 -12 -7 -9 13 7 63 5 15 4 15 -5 3 -9 -13 -11 -13 -11 0
-1 12 -3 11 -11 -3 -6 -10 -8 -25 -5 -33 3 -8 -1 -14 -9 -14 -7 0 -17 -9 -20
-21 -4 -13 -11 -17 -16 -12 -14 14 8 66 23 57 10 -6 11 -4 1 7 -7 7 -13 24
-12 38 0 24 1 24 9 6 8 -18 9 -17 9 8 1 16 -3 26 -9 22 -19 -12 -10 14 17 46
22 26 23 30 7 21 -17 -9 -20 -7 -21 11 -2 16 0 18 7 8 6 -11 9 -7 12 15 6 52
-3 122 -17 127 -7 3 -12 0 -12 -6 1 -30 -4 -45 -15 -50 -25 -9 -9 142 22 208
5 11 11 36 14 55 7 67 28 165 41 190 17 33 35 103 40 154 4 32 2 36 -5 19 -7
-17 -18 -23 -39 -23 -34 0 -51 22 -44 60 3 24 3 24 -11 5 -14 -20 -15 -20 -13
0 1 11 9 23 17 27 11 6 10 7 -5 5 -11 -2 -19 -9 -17 -15 1 -7 -2 -12 -8 -12
-5 0 -10 3 -10 8 0 4 -16 7 -35 8 -24 0 -35 -4 -35 -14 0 -9 -7 -13 -20 -9
-13 3 -20 0 -20 -9 0 -20 -17 -18 -29 4 -9 15 -10 15 -11 -5 0 -35 -20 -38
-46 -7 l-24 29 6 -37 c6 -36 5 -38 -19 -38 -22 0 -27 6 -33 38 -4 20 -13 51
-21 69 -18 44 -17 48 13 62 27 12 54 1 54 -23 0 -6 8 -20 16 -31 15 -19 16
-17 11 33 l-4 53 65 30 c36 16 73 29 83 29 11 0 19 6 19 13 0 7 10 17 22 22
26 12 39 42 14 32 -10 -4 -15 -3 -11 3 3 6 1 10 -5 10 -6 0 -8 5 -4 11 5 8 1
8 -14 0 -14 -8 -23 -8 -27 -1 -4 6 -21 8 -41 4 -21 -4 -34 -2 -34 4 0 6 9 8
20 5 28 -7 26 17 -5 53 -14 16 -23 35 -20 42 3 8 5 18 5 23 0 5 11 9 24 9 17
0 27 9 36 30 7 16 16 28 20 25 4 -3 10 2 14 10 4 11 -1 15 -17 15 -19 1 -20 2
-6 13 9 7 14 18 11 25 -3 10 -7 10 -18 1 -12 -10 -13 -9 -8 5 8 22 21 20 34
-4 6 -11 7 -20 3 -20 -4 0 -2 -5 4 -11 6 -6 9 -18 6 -25 -4 -10 0 -12 13 -8
15 4 14 1 -5 -15 -21 -19 -23 -24 -11 -45 7 -13 9 -30 5 -37 -5 -8 -4 -10 4
-5 6 4 14 0 17 -8 3 -9 11 -16 16 -16 6 0 8 7 4 15 -3 8 -1 15 4 15 10 0 25
-20 25 -35 0 -5 8 -11 18 -13 11 -2 17 3 16 15 0 10 -3 13 -6 6 -2 -7 -9 -13
-14 -13 -6 0 -6 8 1 19 12 23 3 51 -16 51 -8 0 -11 6 -8 15 4 8 2 15 -3 15 -5
0 -15 16 -22 35 -7 19 -16 35 -21 35 -5 0 -7 6 -4 14 3 7 -6 38 -20 68 -31 68
-26 93 26 119 21 11 100 66 176 123 75 56 170 120 211 142 54 29 86 54 120 96
25 31 51 57 57 57 6 1 25 -6 43 -15 25 -13 56 -15 140 -12 64 2 114 8 123 15
10 9 13 30 12 77 -3 67 -9 90 -23 81 -5 -2 -29 2 -55 11 -42 14 -46 19 -46 47
0 18 -4 39 -9 46 -8 12 -11 9 -16 -12 -4 -16 -14 -27 -24 -27 -9 0 -26 -7 -37
-15 -17 -11 -25 -12 -38 -2 -15 11 -15 15 0 54 22 56 14 73 -35 73 -29 0 -47
-7 -63 -23 -13 -13 -50 -31 -83 -41 -118 -36 -205 -100 -205 -152 0 -16 -4
-34 -8 -40 -16 -26 -195 -154 -214 -154 -13 0 -9 34 6 55 7 11 26 56 41 100
25 71 28 92 26 195 -2 99 -5 118 -22 136 -12 12 -17 28 -13 37 9 23 21 21 29
-4 12 -37 21 -3 23 85 1 74 -2 93 -27 148 -35 77 -105 168 -130 168 -10 0 -35
7 -56 16 -21 8 -43 13 -50 10 -8 -3 -27 0 -44 7 -23 8 -36 9 -49 1 -9 -6 -31
-9 -48 -7 -20 3 -46 -3 -72 -16 -51 -26 -64 -26 -87 -1 -34 38 -151 53 -308
39z m-752 -479 c-3 -5 -13 -10 -21 -10 -8 0 -17 -7 -20 -15 -3 -8 -34 -33 -67
-56 -82 -55 -146 -116 -163 -156 -22 -51 -37 -41 -32 19 5 47 10 57 49 91 24
22 60 48 80 58 21 10 43 24 50 32 30 28 139 62 124 37z m-95 -221 c0 -5 -15
-30 -34 -56 -18 -27 -40 -66 -47 -88 -7 -22 -14 -42 -16 -44 -5 -8 -62 21 -67
35 -7 17 10 19 18 2 3 -7 3 -1 0 14 -9 40 14 95 49 122 43 32 97 41 97 15z
m2322 -21 c-7 -7 -12 -8 -12 -2 0 14 12 26 19 19 2 -3 -1 -11 -7 -17z m-1956
-36 c-24 -25 -27 -25 -42 -10 -16 16 -15 18 17 31 46 19 57 10 25 -21z m-226
12 c0 -9 -32 -33 -44 -34 -5 0 -1 9 9 20 18 20 35 26 35 14z m937 -29 c3 -9 3
-19 -1 -22 -8 -9 -37 18 -30 28 8 14 24 11 31 -6z m453 -107 c0 -15 -29 -20
-68 -13 -28 6 -33 9 -18 14 26 10 86 9 86 -1z m-1490 -2 c0 -11 -19 -15 -25
-6 -3 5 1 10 9 10 9 0 16 -2 16 -4z m1497 -528 c-3 -8 -6 -5 -6 6 -1 11 2 17
5 13 3 -3 4 -12 1 -19z m-391 -23 c20 -30 46 -148 38 -170 -10 -24 -41 -17
-64 15 -12 17 -28 30 -36 30 -18 0 -18 18 1 63 8 20 15 48 15 62 0 33 24 33
46 0z m374 -25 c-6 -12 -14 -20 -17 -17 -2 3 1 14 8 26 17 26 24 19 9 -9z
m-50 -58 c0 -14 -27 -34 -33 -25 -3 4 -3 20 0 35 4 23 7 25 19 13 8 -7 14 -18
14 -23z m39 -24 c-8 -16 -13 -18 -19 -8 -11 18 -1 40 16 33 10 -4 11 -10 3
-25z m110 -49 c-16 -10 -41 9 -32 24 5 8 8 7 11 -1 6 -19 22 -14 16 6 -5 14
-4 14 6 -2 10 -14 10 -20 -1 -27z m41 -29 c26 -16 4 -21 -26 -5 -23 12 -25 15
-9 15 11 0 27 -4 35 -10z m-404 -111 c1 -19 -3 -29 -12 -29 -9 0 -14 11 -14
28 0 52 24 53 26 1z m331 -16 c-4 -3 -2 -12 4 -20 9 -10 8 -13 -4 -13 -9 0
-14 7 -12 18 5 23 4 22 12 22 3 0 3 -3 0 -7z m123 -363 c0 -11 -4 -20 -8 -20
-4 0 -8 9 -8 20 0 11 4 20 8 20 4 0 8 -9 8 -20z m-1005 -377 c-3 -54 -5 -102
-6 -108 -1 -5 1 -20 5 -32 5 -16 -1 -30 -22 -55 -20 -22 -31 -49 -35 -82 -4
-27 -20 -76 -37 -110 -29 -59 -34 -83 -60 -266 -6 -47 -21 -118 -32 -157 -18
-65 -21 -114 -17 -223 2 -46 -17 -219 -25 -227 -3 -3 -9 8 -12 25 -4 17 -14
34 -24 37 -11 4 -16 12 -13 24 2 9 0 76 -6 147 -7 91 -7 225 1 454 l11 325 26
35 c35 48 132 171 152 193 10 10 32 41 50 68 19 27 37 49 41 49 4 0 5 -44 3
-97z m895 53 c0 -8 -4 -18 -10 -21 -5 -3 -10 3 -10 14 0 12 5 21 10 21 6 0 10
-6 10 -14z m-20 -46 c0 -5 -5 -10 -11 -10 -5 0 -7 5 -4 10 3 6 8 10 11 10 2 0
4 -4 4 -10z m107 -462 c-3 -8 -6 -5 -6 6 -1 11 2 17 5 13 3 -3 4 -12 1 -19z
m4 -151 c-11 -11 -31 -1 -30 16 0 9 2 9 6 0 12 -31 22 -9 18 40 l-4 52 10 -49
c6 -31 7 -52 0 -59z m-1187 -799 c8 -33 -19 -53 -46 -34 -17 12 -19 61 -4 85
11 17 41 -13 50 -51z m26 -78 c0 -5 -4 -10 -10 -10 -5 0 -10 5 -10 10 0 6 5
10 10 10 6 0 10 -4 10 -10z m1257 -766 c-3 -3 3 -15 13 -27 15 -15 17 -24 8
-34 -8 -10 -14 -10 -24 -2 -21 17 -17 69 4 69 3 0 3 -3 -1 -6z m210 -94 c0 -3
3 -16 7 -29 11 -33 -10 -44 -48 -24 -27 14 -31 14 -43 -3 -7 -10 -13 -13 -13
-7 0 7 -9 15 -20 18 -23 7 -26 30 -6 42 16 9 125 11 123 3z m-157 -84 c0 -3
-4 -8 -10 -11 -5 -3 -10 -1 -10 4 0 6 5 11 10 11 6 0 10 -2 10 -4z m-4490
-1765 c0 -16 -28 -20 -34 -5 -4 9 1 14 14 14 11 0 20 -4 20 -9z m1177 -357
c-3 -3 -12 -4 -19 -1 -8 3 -5 6 6 6 11 1 17 -2 13 -5z m1566 -584 c4 0 6 -4 3
-9 -4 -5 -12 -8 -19 -7 -49 10 -65 20 -78 50 l-15 32 50 -33 c28 -18 54 -33
59 -33z m-1315 -261 c-2 -6 -8 -10 -13 -10 -5 0 -11 4 -13 10 -2 6 4 11 13 11
9 0 15 -5 13 -11z m1236 -127 c8 -16 13 -51 12 -84 -2 -32 1 -58 6 -58 4 0 8
-6 8 -14 0 -8 11 -28 26 -45 l25 -30 -33 -9 c-21 -5 -34 -15 -37 -28 -4 -26
-21 -44 -48 -55 -13 -5 -23 -15 -23 -24 0 -8 -7 -15 -15 -15 -8 0 -15 5 -15
10 0 14 -43 30 -55 20 -5 -4 -32 -12 -58 -18 -38 -8 -55 -7 -75 4 -47 25 -97
18 -132 -18 -27 -27 -35 -30 -51 -20 -30 19 -49 15 -49 -12 0 -29 -17 -43 -33
-27 -8 8 -6 15 7 24 18 13 18 14 0 21 -12 5 -22 2 -28 -7 -8 -13 -14 -12 -38
6 -24 18 -31 19 -52 7 -15 -8 -38 -10 -57 -6 -18 3 -38 1 -45 -5 -11 -9 -18
-8 -29 1 -8 6 -19 9 -24 6 -5 -4 -13 -1 -16 5 -4 5 -14 7 -24 3 -18 -8 -69 -6
-83 2 -5 3 -4 12 3 20 23 28 -21 15 -47 -13 l-26 -28 -23 27 c-16 19 -26 23
-34 15 -7 -7 -18 -7 -38 2 -24 11 -26 14 -10 22 9 6 17 21 17 34 0 26 15 41
25 25 4 -6 1 -18 -6 -26 -17 -21 -4 -29 26 -16 27 12 33 36 12 49 -14 8 -57
67 -57 77 0 16 39 3 53 -16 8 -13 18 -20 23 -15 4 4 2 13 -4 19 -22 22 -12 46
31 80 89 70 103 75 233 88 59 6 110 13 114 15 3 2 64 7 135 10 72 4 166 10
210 14 44 3 126 7 182 9 103 2 103 2 117 -26z m636 -43 c0 -11 -6 -19 -13 -19
-8 0 -14 12 -14 30 0 24 3 27 14 19 7 -6 13 -20 13 -30z m-1578 4 c-12 -3 -20
-8 -17 -12 2 -5 -7 -6 -20 -3 -39 7 -29 18 18 18 23 1 32 -1 19 -3z m-211
-103 c30 -17 22 -30 -11 -19 -16 6 -30 15 -30 20 0 12 17 11 41 -1z m114 -240
c3 -5 -1 -10 -10 -10 -9 0 -13 5 -10 10 3 6 8 10 10 10 2 0 7 -4 10 -10z m989
-16 c24 -9 19 -24 -8 -24 -28 0 -43 16 -24 23 7 3 14 6 15 6 1 1 8 -2 17 -5z
m-143 -29 c-1 -15 -24 -12 -29 3 -3 9 2 13 12 10 10 -1 17 -7 17 -13z"/>
<path d="M2546 192 c-3 -6 -1 -14 5 -17 15 -10 25 3 12 16 -7 7 -13 7 -17 1z"/>
<path d="M2670 170 c0 -5 7 -10 15 -10 8 0 15 5 15 10 0 6 -7 10 -15 10 -8 0
-15 -4 -15 -10z"/>
<path d="M3436 8121 c-12 -5 -15 -10 -9 -14 6 -4 16 0 23 8 14 17 13 17 -14 6z"/>
<path d="M3836 7635 c-25 -38 -18 -53 9 -20 14 17 25 33 25 38 0 15 -18 6 -34
-18z"/>
<path d="M5120 6835 c1 -26 2 -28 11 -12 8 14 8 22 0 30 -8 8 -11 3 -11 -18z"/>
<path d="M5210 6820 c-7 -4 -12 -11 -13 -16 -1 -5 -6 -8 -10 -6 -5 1 -6 -2 -2
-8 3 -6 10 -8 15 -5 4 3 10 2 13 -2 2 -5 2 -2 1 5 -2 6 3 12 10 12 8 0 16 6
19 13 5 14 -15 18 -33 7z"/>
<path d="M5235 6560 c-3 -5 1 -10 10 -10 9 0 13 5 10 10 -3 6 -8 10 -10 10 -2
0 -7 -4 -10 -10z"/>
<path d="M5275 6560 c3 -5 11 -10 16 -10 6 0 7 5 4 10 -3 6 -11 10 -16 10 -6
0 -7 -4 -4 -10z"/>
<path d="M5201 5985 c1 -19 18 -51 18 -35 0 8 -4 22 -9 30 -5 8 -9 11 -9 5z"/>
<path d="M5217 5703 c-8 -17 -1 -38 12 -38 8 0 18 -9 23 -20 6 -14 6 -11 2 10
-4 17 -7 36 -7 43 0 13 -23 17 -30 5z"/>
<path d="M5225 5640 c3 -5 8 -10 11 -10 2 0 4 5 4 10 0 6 -5 10 -11 10 -5 0
-7 -4 -4 -10z"/>
<path d="M5050 3740 c0 -5 -8 -10 -19 -10 -30 0 -43 -23 -31 -56 20 -51 97
-148 186 -234 l89 -85 9 43 c12 59 -8 81 -68 75 -38 -5 -46 -2 -56 17 -10 18
-10 31 1 62 18 57 5 74 -54 70 -37 -3 -46 0 -51 16 -4 10 0 32 9 48 19 37 19
64 0 64 -8 0 -15 -4 -15 -10z"/>
<path d="M5500 3532 c0 -14 35 -42 52 -42 21 0 32 31 16 42 -17 10 -68 10 -68
0z"/>
<path d="M5525 3460 c-8 -13 13 -40 31 -40 22 0 28 22 9 37 -23 16 -32 16 -40
3z"/>
<path d="M5360 3195 c0 -26 24 -50 40 -40 5 3 10 17 10 29 0 17 -7 25 -25 28
-21 4 -25 1 -25 -17z"/>
<path d="M5460 3085 c0 -12 28 -35 43 -35 2 0 2 11 -1 25 -5 27 -42 36 -42 10z"/>
<path d="M5610 3072 c0 -4 20 -28 45 -52 25 -24 45 -48 45 -52 0 -11 -38 -10
-61 2 -10 6 -19 8 -19 6 0 -9 98 -56 114 -56 8 0 27 10 42 23 23 20 25 26 15
44 -6 12 -32 29 -58 39 -27 10 -53 21 -58 25 -19 14 -65 29 -65 21z"/>
<path d="M9883 2120 c-29 -4 -155 -11 -279 -14 -125 -3 -229 -8 -231 -10 -2
-2 76 -6 174 -10 353 -15 352 -14 354 -54 1 -15 0 -37 -1 -49 -1 -15 4 -23 14
-23 13 0 15 10 13 48 -2 45 -1 47 26 50 15 2 27 -1 27 -7 0 -6 5 -11 10 -11 6
0 10 20 10 45 0 44 0 45 -32 44 -18 -1 -56 -5 -85 -9z"/>
<path d="M8975 2091 c11 -5 38 -5 60 -1 38 7 36 8 -20 8 -40 1 -53 -2 -40 -7z"/>
<path d="M9820 2013 c0 -15 23 -33 42 -33 23 0 23 16 1 24 -10 3 -24 9 -30 12
-7 3 -13 2 -13 -3z"/>
<path d="M9877 1884 c-4 -4 -59 -8 -124 -11 -65 -2 -125 -4 -133 -4 -8 -1
-119 0 -245 1 l-231 2 -37 -33 c-20 -18 -37 -42 -37 -53 0 -20 -2 -19 -20 4
-14 19 -29 25 -62 27 -24 1 -60 3 -81 5 -42 4 -55 -5 -38 -26 15 -17 4 -44
-20 -51 -29 -9 -23 -41 9 -53 15 -5 52 -7 81 -4 45 4 57 2 68 -13 7 -11 13
-13 13 -7 0 7 15 12 35 12 35 0 47 -16 20 -26 -17 -7 -21 -44 -5 -44 6 0 10 4
10 9 0 18 47 61 66 61 11 0 25 -9 32 -20 8 -13 23 -20 41 -20 37 0 41 -6 46
-77 2 -32 4 -61 4 -64 1 -3 7 -6 15 -6 11 0 12 7 5 31 -5 17 -9 32 -9 33 0 1
7 0 15 -3 8 -4 15 -17 15 -29 0 -30 16 -41 36 -24 10 8 12 15 4 23 -17 17 -12
26 14 26 14 0 26 6 29 13 2 6 2 0 0 -15 -4 -26 -2 -28 31 -28 47 0 56 -18 9
-22 -49 -4 -57 -28 -8 -28 19 0 48 -8 62 -17 26 -17 27 -17 19 2 -12 33 -12
39 5 42 11 3 19 -5 24 -24 3 -15 19 -44 33 -63 15 -19 26 -38 25 -41 -4 -12
59 -19 79 -8 25 14 48 5 48 -20 0 -11 9 -21 23 -25 33 -9 37 -8 37 9 0 19 26
20 33 1 4 -11 27 -14 96 -14 l90 0 1 289 1 289 -59 0 c-32 0 -62 -3 -65 -6z
m-637 -28 c0 -3 -4 -8 -10 -11 -5 -3 -10 -1 -10 4 0 6 5 11 10 11 6 0 10 -2
10 -4z m-290 -71 c0 -9 -6 -18 -14 -21 -8 -3 -12 -13 -9 -25 3 -10 0 -19 -6
-19 -6 0 -11 17 -11 40 0 33 3 40 20 40 11 0 20 -7 20 -15z m50 -35 c0 -13 -7
-20 -20 -20 -18 0 -19 2 -8 20 7 11 16 20 20 20 5 0 8 -9 8 -20z m293 -112 c8
-28 2 -34 -17 -19 -8 7 -12 19 -9 27 8 21 20 17 26 -8z m62 -38 c-3 -5 -16
-10 -28 -10 -18 0 -19 2 -7 10 20 13 43 13 35 0z m458 -205 c1 -5 -6 -11 -15
-13 -11 -2 -18 3 -18 13 0 17 30 18 33 0z m87 -20 c0 -8 -4 -15 -10 -15 -5 0
-10 7 -10 15 0 8 5 15 10 15 6 0 10 -7 10 -15z"/>
<path d="M1025 1790 c4 -6 11 -8 16 -5 14 9 11 15 -7 15 -8 0 -12 -5 -9 -10z"/>
<path d="M3575 1680 c-9 -14 4 -52 16 -45 12 8 12 55 0 55 -6 0 -13 -5 -16
-10z"/>
<path d="M9231 1504 c0 -11 3 -14 6 -6 3 7 2 16 -1 19 -3 4 -6 -2 -5 -13z"/>
<path d="M2458 1463 c7 -3 16 -2 19 1 4 3 -2 6 -13 5 -11 0 -14 -3 -6 -6z"/>
<path d="M9525 1371 c-7 -12 12 -24 25 -16 11 7 4 25 -10 25 -5 0 -11 -4 -15
-9z"/>
<path d="M3936 1289 c-12 -60 -13 -80 -2 -76 16 5 31 76 18 89 -8 8 -12 4 -16
-13z"/>
<path d="M3974 1016 c-11 -47 5 -49 75 -9 11 7 -25 33 -45 33 -17 0 -25 -7
-30 -24z"/>
<path d="M9884 980 c-22 -5 -85 -11 -140 -14 -337 -20 -461 -27 -644 -40 -113
-8 -214 -14 -225 -14 -41 1 -313 -13 -425 -22 -63 -6 -232 -17 -375 -25 -143
-9 -316 -20 -385 -25 -69 -5 -168 -10 -222 -10 -53 0 -156 -7 -230 -15 -73 -8
-169 -13 -213 -12 -100 3 -135 -6 -135 -34 0 -21 2 -21 248 -15 275 7 473 15
481 21 3 1 119 6 256 10 138 4 253 9 256 10 3 2 113 6 245 10 226 5 451 19
503 31 13 3 43 2 67 -2 38 -5 43 -9 32 -21 -13 -16 3 -33 34 -33 9 0 23 -3 32
-6 12 -4 16 0 16 16 0 13 4 19 11 14 7 -4 9 0 5 14 -5 16 -1 20 23 24 16 2 38
1 49 -3 11 -4 36 -4 55 1 20 4 55 4 79 0 25 -5 47 -5 53 1 16 15 25 10 25 -14
0 -16 -9 -28 -25 -35 -14 -6 -25 -16 -25 -22 0 -5 1 -10 3 -10 1 0 17 -4 34
-9 18 -5 32 -6 32 -3 -1 4 2 17 6 30 8 25 40 27 40 2 0 -21 34 -25 41 -5 4 8
19 22 34 30 24 13 30 13 40 0 9 -11 10 -18 1 -29 -9 -11 -4 -13 28 -12 25 0
47 -6 59 -17 22 -20 46 -14 72 17 32 40 65 5 53 -57 -5 -24 -1 -33 18 -48 l24
-18 -32 -13 c-31 -12 -45 -28 -24 -28 5 0 3 -13 -5 -30 -17 -33 -43 -41 -40
-12 1 13 -8 18 -41 20 -40 3 -43 1 -58 -34 -12 -30 -13 -39 -3 -46 19 -12 28
-10 28 6 0 23 20 29 38 13 9 -8 31 -17 47 -19 26 -2 30 0 28 18 -2 17 2 21 16
17 12 -3 28 5 44 22 20 22 31 26 51 21 17 -4 26 -13 26 -26 0 -20 14 -27 24
-11 3 5 27 6 52 3 43 -5 46 -3 40 16 -4 11 -2 23 4 27 33 20 -16 74 -57 61
-20 -6 -91 49 -79 61 3 4 12 1 18 -5 15 -15 48 -15 48 0 0 6 10 22 22 35 30
32 16 40 -15 9 -15 -14 -31 -26 -36 -26 -20 0 -20 18 -1 35 11 10 20 29 20 42
0 24 14 31 25 13 3 -5 15 -10 26 -10 12 0 19 -7 19 -19 0 -11 5 -23 10 -26 6
-4 10 35 10 109 0 104 -2 116 -17 116 -10 0 -27 2 -38 4 -11 2 -38 0 -61 -4z
m-120 -122 c-5 -7 1 -9 17 -5 18 5 28 1 37 -14 7 -11 10 -24 7 -29 -8 -13 -35
-13 -35 0 0 20 -73 11 -97 -12 -13 -12 -26 -19 -29 -15 -13 13 27 58 56 64 17
3 30 12 30 20 0 8 5 11 10 8 6 -4 7 -11 4 -17z m-127 -3 c1 -5 -2 -17 -7 -25
-8 -12 -13 -13 -30 -2 -11 6 -29 12 -40 12 -33 0 -23 18 13 23 44 6 60 4 64
-8z m-161 -5 c16 -6 23 -14 18 -19 -14 -13 -74 -1 -74 15 0 17 19 18 56 4z
m374 -84 c0 -2 -7 -7 -16 -10 -8 -3 -12 -2 -9 4 6 10 25 14 25 6z m-46 -155
c3 -5 -1 -12 -10 -15 -27 -11 -37 -7 -24 9 14 17 26 19 34 6z m56 0 c0 -10
-30 -24 -37 -17 -3 3 -2 9 2 15 8 13 35 15 35 2z"/>
<path d="M2360 870 c0 -11 5 -20 10 -20 6 0 10 9 10 20 0 11 -4 20 -10 20 -5
0 -10 -9 -10 -20z"/>
<path d="M2840 869 c0 -5 5 -7 10 -4 6 3 10 8 10 11 0 2 -4 4 -10 4 -5 0 -10
-5 -10 -11z"/>
<path d="M2865 830 c-21 -24 -16 -33 17 -28 21 3 23 6 12 26 -11 22 -11 22
-29 2z"/>
<path d="M2730 815 l-35 -13 28 -11 c58 -23 109 -5 71 24 -22 16 -18 17 -64 0z"/>
<path d="M9160 810 c0 -5 9 -10 21 -10 11 0 17 5 14 10 -3 6 -13 10 -21 10 -8
0 -14 -4 -14 -10z"/>
<path d="M9260 810 c0 -5 5 -10 10 -10 6 0 10 5 10 10 0 6 -4 10 -10 10 -5 0
-10 -4 -10 -10z"/>
<path d="M6846 771 c-4 -5 -2 -12 3 -15 5 -4 12 -2 15 3 4 5 2 12 -3 15 -5 4
-12 2 -15 -3z"/>
<path d="M5740 737 c-3 -3 -41 -6 -85 -7 -44 -1 -174 -9 -290 -18 -115 -8
-230 -15 -254 -14 -24 1 -49 -2 -55 -7 -6 -5 -20 -11 -31 -14 -15 -4 -13 -5 8
-6 17 -1 27 -7 27 -16 0 -12 19 -14 123 -10 67 3 228 10 357 15 286 12 497 28
529 42 37 14 8 28 -59 28 -30 0 -102 2 -160 6 -58 3 -107 4 -110 1z"/>
<path d="M9516 708 c-13 -14 -15 -23 -8 -26 7 -2 12 -10 12 -17 0 -14 25 -27
34 -18 3 4 -2 15 -11 25 -15 17 -15 20 -3 28 21 14 30 12 30 -5 0 -19 14 -19
29 -1 9 11 5 16 -20 25 -42 14 -42 15 -63 -11z"/>
<path d="M9340 610 c0 -5 9 -10 21 -10 11 0 17 5 14 10 -3 6 -13 10 -21 10 -8
0 -14 -4 -14 -10z"/>
<path d="M9480 594 c0 -10 7 -14 22 -12 32 5 35 28 4 28 -17 0 -26 -5 -26 -16z"/>
<path d="M9415 570 c4 -6 11 -8 16 -5 14 9 11 15 -7 15 -8 0 -12 -5 -9 -10z"/>
<path d="M9516 551 c-3 -5 3 -11 14 -14 21 -5 32 1 24 14 -7 12 -31 11 -38 0z"/>
<path d="M9450 540 c0 -5 7 -10 15 -10 8 0 15 5 15 10 0 6 -7 10 -15 10 -8 0
-15 -4 -15 -10z"/>
<path d="M9495 511 c-4 -12 -15 -21 -26 -21 -11 0 -17 -4 -14 -10 7 -12 77 20
72 34 -6 19 -25 17 -32 -3z"/>
<path d="M9203 501 c-13 -20 -8 -31 14 -31 7 0 13 11 13 25 0 30 -11 32 -27 6z"/>
<path d="M4280 490 c0 -5 5 -10 10 -10 6 0 10 5 10 10 0 6 -4 10 -10 10 -5 0
-10 -4 -10 -10z"/>
<path d="M9350 490 c0 -5 7 -7 15 -4 8 4 15 8 15 10 0 2 -7 4 -15 4 -8 0 -15
-4 -15 -10z"/>
<path d="M9400 484 c0 -17 22 -14 28 4 2 7 -3 12 -12 12 -9 0 -16 -7 -16 -16z"/>
<path d="M9165 430 c5 -16 2 -20 -14 -20 -12 0 -21 -4 -21 -9 0 -6 23 -11 52
-13 32 -2 52 -8 54 -16 1 -7 0 -8 -2 -3 -3 6 -18 5 -40 0 -19 -6 -39 -7 -45
-4 -5 4 -16 2 -23 -4 -8 -7 -18 -11 -22 -10 -21 3 -26 -2 -15 -15 8 -10 9 -16
1 -21 -18 -11 -11 -20 18 -22 15 -1 33 4 40 10 11 8 16 7 24 -6 11 -21 28 -13
28 14 0 10 6 19 13 20 6 0 26 2 44 5 43 5 52 -14 14 -27 -17 -6 -31 -15 -31
-20 0 -5 -9 -9 -20 -9 -11 0 -20 -4 -20 -9 0 -5 -15 -6 -34 -1 -33 7 -34 7
-26 -21 16 -55 34 -63 65 -29 22 24 41 26 49 3 5 -12 9 -14 18 -5 19 19 45 14
63 -14 13 -20 14 -29 5 -38 -8 -8 -14 -7 -21 6 -13 23 -40 23 -70 0 -35 -27
-66 -32 -97 -16 -33 17 -42 2 -16 -27 16 -18 16 -19 -3 -19 -11 0 -29 11 -41
25 -17 19 -18 25 -7 25 11 0 15 12 15 44 0 48 -13 65 -34 46 -11 -8 -15 -8
-19 2 -3 9 -11 5 -25 -12 -19 -24 -19 -26 -4 -55 10 -16 23 -34 30 -38 6 -4
12 -13 12 -20 -1 -18 -49 -50 -65 -43 -12 4 -13 2 -2 -15 10 -18 9 -23 -10
-36 -13 -9 -23 -19 -23 -24 0 -14 577 -11 616 3 27 9 38 9 59 -2 17 -9 29 -11
33 -4 4 6 30 10 57 9 28 0 53 4 58 10 5 6 12 4 21 -8 15 -20 67 -24 64 -5 -2
9 7 12 25 10 15 -1 27 2 27 8 0 18 18 11 25 -10 4 -13 15 -20 31 -20 l24 0 -2
177 -3 178 -33 3 c-27 3 -31 6 -22 17 8 9 8 15 0 20 -5 3 -10 -1 -10 -10 0 -8
-7 -18 -16 -22 -15 -6 -15 -8 2 -20 17 -13 15 -15 -15 -17 -30 -2 -23 -26 8
-26 33 0 44 -23 16 -34 -15 -5 -21 -37 -9 -49 4 -3 18 3 32 14 16 12 29 16 35
10 13 -13 -1 -31 -25 -31 -11 0 -22 -8 -25 -20 -11 -40 -41 -17 -45 35 -2 30
-8 41 -23 44 -24 4 -59 38 -69 66 -7 19 -8 19 -17 3 -6 -10 -19 -18 -29 -18
-10 0 -21 -4 -24 -9 -9 -13 -52 -19 -70 -9 -11 6 -15 16 -11 29 4 13 2 19 -8
19 -8 0 -18 11 -21 25 -4 15 -13 25 -25 25 -28 0 -43 -24 -35 -56 l7 -27 -26
19 c-15 10 -27 25 -27 32 0 12 -16 11 -73 -5 -10 -2 -25 1 -33 8 -11 9 -18 8
-34 -6 -21 -19 -40 -13 -40 14 0 20 -66 43 -98 34 -10 -2 -26 5 -36 16 -24 27
-39 27 -31 1z m125 -60 c-6 -11 -13 -20 -15 -20 -3 0 -5 9 -5 20 0 11 7 20 15
20 13 0 14 -4 5 -20z m300 -16 c0 -8 -5 -12 -10 -9 -6 4 -8 11 -5 16 9 14 15
11 15 -7z m-150 -24 c0 -5 -2 -10 -4 -10 -3 0 -8 5 -11 10 -3 6 -1 10 4 10 6
0 11 -4 11 -10z m-393 -162 c-3 -8 -6 -5 -6 6 -1 11 2 17 5 13 3 -3 4 -12 1
-19z m770 6 c-3 -3 -12 -4 -19 -1 -8 3 -5 6 6 6 11 1 17 -2 13 -5z m-518 -35
c17 -39 11 -44 -33 -23 -42 21 -44 25 -13 40 32 16 31 17 46 -17z m71 -21 c0
-35 -16 -56 -31 -41 -10 10 -10 18 -1 38 14 31 32 33 32 3z m-310 -79 c0 -5
-7 -9 -15 -9 -15 0 -20 12 -9 23 8 8 24 -1 24 -14z m550 12 c13 -1 13 -2 0 -9
-17 -10 -132 -3 -126 6 3 6 72 7 126 3z m40 -1 c0 -5 -2 -10 -4 -10 -3 0 -8 5
-11 10 -3 6 -1 10 4 10 6 0 11 -4 11 -10z m110 -10 c0 -5 -2 -10 -4 -10 -3 0
-8 5 -11 10 -3 6 -1 10 4 10 6 0 11 -4 11 -10z"/>
<path d="M9080 390 c0 -19 3 -21 12 -12 9 9 9 15 0 24 -9 9 -12 7 -12 -12z"/>
<path d="M7343 369 c-11 -12 -32 -22 -45 -22 -18 -2 -24 -7 -21 -17 3 -8 -5
-2 -19 13 -21 26 -26 28 -51 16 -31 -14 -35 -29 -8 -29 27 0 34 -15 16 -30
-12 -10 -21 -10 -38 -2 -41 19 -55 21 -81 9 -32 -15 -33 -30 -4 -59 18 -18 25
-20 49 -11 21 8 32 8 46 -2 10 -7 38 -16 62 -20 39 -6 43 -5 38 9 -6 15 -1 16
35 13 38 -3 43 -7 45 -30 1 -15 -2 -29 -8 -32 -16 -10 -10 -23 13 -31 13 -4
28 -14 35 -23 10 -14 13 -14 31 2 11 10 36 19 56 20 39 2 49 21 15 30 -12 3
-18 10 -14 17 5 8 10 8 20 0 8 -7 19 -9 25 -5 14 9 50 -4 50 -18 0 -7 15 -27
32 -46 l31 -35 19 23 c13 18 21 21 31 13 7 -6 22 -9 33 -6 13 4 28 -4 47 -26
22 -24 33 -29 50 -24 12 5 33 7 47 6 45 -3 90 8 90 23 0 8 9 24 21 36 16 16
18 23 8 35 -6 8 -15 29 -18 47 -7 32 -8 32 -69 35 -56 3 -62 5 -68 28 -8 30
-33 45 -64 37 -19 -5 -22 -3 -17 11 8 21 -18 33 -37 17 -10 -8 -22 -7 -50 4
-34 14 -37 14 -56 -5 -25 -25 -70 -18 -70 11 0 12 -7 19 -20 19 -11 0 -20 -7
-20 -15 0 -19 -19 -19 -43 -1 -10 8 -26 12 -36 9 -11 -3 -30 2 -43 11 -22 15
-25 14 -45 -5z m-9 -90 c-3 -5 -10 -7 -15 -3 -5 3 -7 10 -3 15 3 5 10 7 15 3
5 -3 7 -10 3 -15z m-58 -16 c-10 -10 -19 5 -10 18 6 11 8 11 12 0 2 -7 1 -15
-2 -18z"/>
<path d="M8860 375 c0 -8 5 -15 10 -15 6 0 10 7 10 15 0 8 -4 15 -10 15 -5 0
-10 -7 -10 -15z"/>
<path d="M9025 350 c3 -5 11 -10 16 -10 6 0 7 5 4 10 -3 6 -11 10 -16 10 -6 0
-7 -4 -4 -10z"/>
<path d="M7047 343 c-13 -12 -7 -33 8 -33 8 0 15 9 15 20 0 20 -11 26 -23 13z"/>
<path d="M6925 301 c-11 -36 17 -67 49 -55 25 10 27 35 4 55 -29 24 -45 24
-53 0z"/>
<path d="M9040 296 c0 -9 5 -16 10 -16 6 0 10 4 10 9 0 6 -4 13 -10 16 -5 3
-10 -1 -10 -9z"/>
<path d="M7020 290 c0 -5 7 -10 15 -10 8 0 15 5 15 10 0 6 -7 10 -15 10 -8 0
-15 -4 -15 -10z"/>
<path d="M8530 290 c0 -5 5 -10 11 -10 5 0 7 5 4 10 -3 6 -8 10 -11 10 -2 0
-4 -4 -4 -10z"/>
<path d="M8940 260 c0 -5 5 -10 10 -10 6 0 10 5 10 10 0 6 -4 10 -10 10 -5 0
-10 -4 -10 -10z"/>
<path d="M8200 251 c0 -10 24 -21 43 -21 7 0 3 7 -7 15 -22 17 -36 19 -36 6z"/>
<path d="M8023 213 c-25 -5 -32 -33 -9 -33 39 0 74 13 69 26 -5 14 -17 15 -60
7z"/>
<path d="M8270 210 c0 -5 5 -10 10 -10 6 0 10 5 10 10 0 6 -4 10 -10 10 -5 0
-10 -4 -10 -10z"/>
<path d="M4307 174 c-9 -10 4 -34 19 -34 8 0 14 9 14 20 0 19 -19 27 -33 14z"/>
<path d="M8060 167 c-27 -9 -35 -18 -37 -39 -2 -31 16 -38 72 -29 25 4 39 12
41 23 2 14 -2 15 -22 8 -30 -12 -32 2 -3 15 53 24 11 42 -51 22z"/>
<path d="M8235 141 c-3 -5 -1 -12 5 -16 5 -3 10 1 10 9 0 18 -6 21 -15 7z"/>
<path d="M8156 131 c-3 -5 1 -12 10 -15 25 -10 34 -7 34 9 0 16 -35 21 -44 6z"/>
<path d="M8567 96 c-10 -14 -24 -26 -32 -26 -24 0 -17 -20 9 -30 13 -5 26 -14
28 -21 6 -19 28 -1 28 22 0 12 5 19 12 17 7 -3 13 -13 13 -24 0 -10 7 -19 15
-19 8 0 15 7 15 15 0 8 6 20 14 26 16 12 9 18 -33 28 -17 4 -35 14 -41 23 -10
13 -14 12 -28 -11z"/>
<path d="M8821 91 c-11 -7 -8 -14 15 -35 16 -14 37 -26 47 -26 9 0 17 -7 17
-15 0 -25 17 -17 30 15 16 39 12 44 -33 41 -26 -2 -39 2 -43 13 -7 18 -13 19
-33 7z"/>
<path d="M7972 61 c4 -13 18 -16 19 -4 0 4 -5 9 -11 12 -7 2 -11 -2 -8 -8z"/>
<path d="M8043 63 c-7 -2 -13 -13 -13 -24 0 -15 7 -19 35 -19 19 0 35 -4 35
-10 0 -5 7 -10 15 -10 8 0 15 5 15 12 0 9 3 9 12 0 16 -16 25 -15 32 4 11 30
-22 54 -73 53 -25 0 -52 -3 -58 -6z"/>
<path d="M8330 35 c0 -24 5 -35 14 -35 20 0 25 11 19 43 -8 40 -33 35 -33 -8z"/>
<path d="M8280 15 c-10 -12 -10 -15 4 -15 9 0 16 7 16 15 0 8 -2 15 -4 15 -2
0 -9 -7 -16 -15z"/>
<path d="M4315 10 c-3 -5 1 -10 10 -10 9 0 13 5 10 10 -3 6 -8 10 -10 10 -2 0
-7 -4 -10 -10z"/>
<path d="M8200 10 c0 -5 9 -10 21 -10 11 0 17 4 14 10 -8 13 -35 13 -35 0z"/>
</g>
</svg>
